<svg version="1.1" xmlns="http://www.w3.org/2000/svg" style="display: block;" viewBox="0 0 2048 2048" width="1024" height="1024">
<path transform="translate(0,0)" fill="rgb(255,251,236)" d="M 0 0 L 2048 0 L 2048 2048 L 0 2048 L 0 0 z"/>
<path transform="translate(0,0)" fill="rgb(12,35,56)" d="M 991.815 410.361 C 1018.86 409.174 1046.06 410.532 1073.1 410.822 L 1195.68 411.019 L 1317.63 410.933 C 1352.51 410.914 1388.23 409.194 1422.66 415.732 C 1458.25 422.215 1491.68 437.408 1519.97 459.955 C 1563.39 495.35 1591.2 546.37 1597.41 602.048 C 1599.35 620.982 1598.68 640.002 1598.7 659 C 1598.85 687.826 1598.81 716.653 1598.56 745.478 L 1598.72 1021.52 L 1598.67 1246.85 C 1598.65 1286.27 1601.51 1336.98 1595.73 1374.69 C 1590.12 1410.76 1575.02 1444.69 1551.97 1473.01 C 1517.91 1514.78 1468.59 1541.23 1414.95 1546.48 L 1415.09 1685.02 C 1415.3 1707.34 1418.93 1730.72 1415.99 1752.87 C 1414.99 1760.42 1411.96 1767.4 1406.91 1773.15 C 1400.25 1780.74 1391 1784.19 1381.08 1784.67 C 1372.6 1785.08 1364.82 1783.63 1357.54 1779.25 C 1347.51 1773.22 1338.79 1764.55 1330.06 1756.83 L 1292.88 1723.82 L 1161.13 1606.76 C 1138.92 1588.84 1117.87 1568.81 1096.36 1550.02 L 708.628 1548.11 L 621.558 1548.1 C 595.763 1548.11 570.034 1548.75 544.513 1544.18 C 510.689 1538.21 478.944 1523.72 452.274 1502.08 C 410.515 1467.51 384.004 1417.91 378.447 1363.99 C 374.725 1324.84 376.979 1277.47 376.988 1237.51 L 377.647 986.558 L 377.751 717.547 L 377.723 646.592 C 377.748 625.508 377.462 604.355 380.808 583.475 C 386.498 547.954 403.027 514.469 425.983 486.963 C 453.688 453.961 490.877 430.283 532.502 419.141 C 575.421 407.679 622.254 411.754 666.355 411.767 C 745.52 412.136 824.686 411.973 903.848 411.277 C 931.513 410.915 963.328 413.103 990.286 410.516 L 991.815 410.361 z"/>
<path transform="translate(0,0)" fill="rgb(178,157,244)" d="M 570.283 462.4 C 574.176 461.92 578.26 461.968 582.183 461.898 C 643.152 460.81 704.363 461.922 765.361 461.918 L 1140.05 461.919 L 1313.1 461.862 C 1346.11 461.848 1382.85 459.102 1415.19 464.617 C 1447.51 469.921 1477.4 485.1 1500.76 508.071 C 1533.78 540.298 1549.54 585.564 1550.01 631.145 C 1550.57 684.167 1549.96 737.257 1549.96 790.286 L 1549.97 1115.46 L 1550.01 1272.38 C 1550.02 1301.54 1552.05 1332.33 1548.37 1361.24 C 1544.99 1387.75 1536.34 1412.5 1520.6 1434.21 C 1498.82 1464.79 1466.4 1486.13 1429.71 1494.05 C 1413.33 1497.49 1388.02 1494.3 1376.03 1507.25 C 1369.73 1514.06 1367.21 1522.51 1365.76 1531.44 C 1363.11 1547.7 1364.84 1564.21 1364.94 1580.6 C 1364.99 1612.4 1365.3 1644.21 1365.85 1676.01 C 1365.88 1691.5 1365.64 1706.99 1365.14 1722.48 C 1308.68 1671.49 1251.81 1620.97 1194.52 1570.92 C 1181.34 1559.29 1121.34 1504.13 1111.22 1500.22 C 1102.54 1496.87 1033.33 1498.91 1016.04 1498.92 L 720.095 1497.85 L 626.28 1497.95 C 602.112 1497.96 577.306 1499.22 553.399 1495.11 C 527.635 1490.78 503.424 1479.88 483.103 1463.46 C 452.597 1438.79 432.267 1400.48 428.192 1361.49 C 426.489 1345.19 427.036 1328.46 427.014 1312.07 L 427.032 1237.14 L 427.116 1000.69 L 427.776 742.744 L 427.815 659.318 C 427.846 636.88 427.269 614.048 430.337 591.78 C 433.912 565.832 446.754 539.332 463.291 519.163 C 489.949 486.72 528.472 466.282 570.283 462.4 z"/>
<path transform="translate(0,0)" fill="rgb(12,35,56)" d="M 958.522 643.416 C 971.011 642.423 983.856 642.816 996.384 642.875 C 1109.31 643.406 1217.12 682.394 1307.26 749.766 C 1322.67 761.28 1337.37 773.209 1351.4 786.362 C 1392.59 824.956 1484.54 924.187 1491.71 981.222 C 1496.38 1018.4 1445.63 1086.33 1423.1 1114.39 C 1346.29 1210.07 1246.35 1285.9 1126.8 1318.3 C 1094.05 1327.17 1061.05 1332.21 1027.37 1335.89 C 1007.27 1336.43 987.185 1337.29 967.067 1336.55 C 884.584 1333.49 808.873 1309.32 737.546 1268.37 C 710.611 1252.91 682.748 1235.28 658.922 1215.35 C 641.953 1200.97 625.693 1185.77 610.2 1169.8 C 575.736 1133.62 495.728 1039.41 492.225 989.991 C 489.325 949.072 546.612 876.729 573.161 846.19 C 594.386 821.774 616.251 798.292 640.687 777.031 C 709.524 717.136 801.609 668.436 891.548 651.049 C 913.65 646.777 936.101 645.002 958.522 643.416 z"/>
<path transform="translate(0,0)" fill="rgb(255,251,236)" d="M 959.889 694.571 C 1027.12 689.829 1094.58 699.998 1157.42 724.353 C 1252.08 761.402 1330.04 825.027 1392.07 904.798 C 1411.64 929.973 1430.55 956.716 1443.41 986.036 C 1428.06 1024.16 1401.61 1060.67 1375.58 1092.16 C 1283.69 1203.33 1165.56 1271.15 1021.24 1284.78 C 955.088 1289.35 888.736 1279.41 826.828 1255.65 C 705.83 1209.02 592.963 1103.68 540.398 985.056 C 556.483 949.524 580.21 916.563 605.031 886.625 C 682.374 793.335 787.136 724.728 906.969 701.346 C 924.392 697.946 942.227 696.235 959.889 694.571 z"/>
<path transform="translate(0,0)" fill="rgb(12,35,56)" d="M 968.194 773.36 C 1088.5 760.577 1196.38 847.735 1209.17 968.037 C 1221.96 1088.34 1134.8 1196.23 1014.5 1209.02 C 894.195 1221.81 786.299 1134.65 773.512 1014.34 C 760.724 894.037 847.888 786.144 968.194 773.36 z"/>
<path transform="translate(0,0)" fill="rgb(255,251,236)" d="M 972.391 823.841 C 1064.98 813.385 1148.53 879.926 1159.05 972.505 C 1169.58 1065.08 1103.1 1148.68 1010.53 1159.28 C 917.86 1169.88 834.153 1103.32 823.616 1010.64 C 813.079 917.965 879.706 834.308 972.391 823.841 z"/>
<path transform="translate(0,0)" fill="rgb(12,35,56)" d="M 988.926 897.623 C 1041.16 896.139 1084.72 937.25 1086.26 989.481 C 1087.79 1041.71 1046.73 1085.31 994.497 1086.9 C 942.192 1088.5 898.513 1047.36 896.974 995.052 C 895.434 942.746 936.618 899.109 988.926 897.623 z"/>
<path transform="translate(0,0)" fill="rgb(221,193,254)" d="M 556.63 473.418 C 574.435 470.781 610.682 473.465 630.218 474.144 C 614.911 478.66 599.243 481.576 583.881 485.819 C 550.055 495.162 521.706 513.562 497.694 538.899 C 474.896 562.955 461.936 593.036 456.189 625.503 C 450.603 657.057 451.631 689.185 451.695 721.096 L 451.958 837.55 C 451.747 866.172 449.886 894.871 449.536 923.546 C 449.161 1000.08 449.282 1076.61 449.901 1153.13 C 450.091 1207.86 449.096 1262.53 450.594 1317.25 C 451.023 1337.03 452.58 1357.48 451.16 1377.21 C 446.383 1373.56 442.779 1370.15 439.243 1365.23 C 439.116 1364.26 438.998 1363.29 438.89 1362.32 C 436.383 1340.54 436.829 1318.48 436.807 1296.59 L 436.76 1217.56 L 436.775 948.561 L 436.762 714.214 L 436.863 648.07 C 436.9 629.976 436.456 611.19 438.975 593.241 C 442.561 567.702 456.27 540.381 472.394 520.327 C 493.368 494.241 523.362 476.934 556.63 473.418 z"/>
<path transform="translate(0,0)" fill="rgb(12,35,56)" d="M 1641.15 182.26 C 1649.17 181.756 1659.81 182.277 1666.39 187.488 C 1677.97 196.673 1682.15 221.672 1687.72 235.322 C 1694.72 252.497 1704.25 269.793 1718.4 282.153 C 1735.07 296.713 1756.55 304.4 1777.15 311.511 C 1786.02 314.576 1795.59 317.344 1803.35 322.822 C 1809.68 327.295 1814.88 333.849 1815.93 341.728 C 1820.85 378.617 1791.23 379.069 1765.92 387.77 C 1752.43 392.408 1739.28 398.953 1728.03 407.78 C 1703.55 426.983 1692.9 452.113 1685.64 481.621 C 1683.44 490.555 1681.94 500.408 1676.11 507.819 C 1670.12 515.435 1663.05 517.056 1653.94 518.105 C 1646.35 518.239 1636.01 518.784 1629.51 514.352 C 1616.13 505.215 1611.6 477.516 1605.46 462.83 C 1598.25 445.593 1589.17 428.61 1575.03 416.043 C 1558.48 401.323 1537.34 392.732 1516.24 386.941 C 1506.91 384.379 1496.19 382.496 1488.06 377.036 C 1481.67 372.749 1477.56 366.487 1476.26 358.901 C 1469.54 319.401 1505.71 318.536 1532.49 308.239 C 1550.71 301.228 1567.41 291.182 1580.27 276.306 C 1594.22 260.172 1603.84 241.161 1611.03 221.205 C 1614.48 211.616 1617.24 199.667 1623.31 191.405 C 1627.99 185.037 1633.67 183.598 1641.15 182.26 z"/>
<path transform="translate(0,0)" fill="rgb(254,206,66)" d="M 1645.44 250.639 C 1651.86 256.606 1656.43 270.516 1660.83 278.356 C 1682.39 316.763 1713.84 333.421 1753.41 348.614 C 1740.75 352.624 1728.75 357.593 1717.23 364.229 C 1683.09 383.883 1660.26 415.592 1650.2 453.375 C 1646.15 451.723 1639.45 432.087 1636.86 427.122 C 1616.21 387.471 1584.37 363.878 1542.34 350.74 C 1544.74 349.845 1547.13 348.908 1549.5 347.931 C 1595.41 329.007 1626.42 296.239 1645.44 250.639 z"/>
<path transform="translate(0,0)" fill="rgb(117,205,224)" d="M 327.595 242.862 C 363.805 240.548 395.071 267.947 397.53 304.147 C 399.988 340.347 372.715 371.722 336.525 374.325 C 300.13 376.943 268.538 349.482 266.066 313.076 C 263.593 276.671 291.18 245.19 327.595 242.862 z"/>
<path transform="translate(0,0)" fill="rgb(255,119,129)" d="M 221.71 1163.6 C 254.289 1157.1 285.935 1178.36 292.233 1210.97 C 298.53 1243.59 277.073 1275.1 244.415 1281.2 C 212.046 1287.24 180.874 1266.01 174.632 1233.68 C 168.39 1201.35 189.42 1170.04 221.71 1163.6 z"/>
<path transform="translate(0,0)" fill="rgb(178,157,244)" d="M 1774.15 665.185 C 1776.57 664.845 1779.05 664.518 1781.5 664.647 C 1802.57 665.76 1799.5 696.65 1808.38 709.164 C 1818.07 722.821 1839.43 719.265 1849.88 732.113 C 1853.17 736.16 1854.57 741.896 1853.69 747.04 C 1850.75 764.25 1820.64 763.192 1809.64 773.534 C 1794.99 787.305 1804.24 808.301 1783.96 820.919 C 1781.26 821.223 1778.18 821.525 1775.49 820.976 C 1756.88 817.181 1760.65 787.594 1751.52 775.352 C 1741.12 761.392 1715.66 766.419 1706.27 750.499 C 1704.17 746.943 1703.92 742.745 1704.96 738.797 C 1709.14 722.978 1732.02 721.842 1744.16 714.844 C 1757.32 707.263 1756.37 695.158 1760.19 682.327 C 1762.76 673.689 1766.33 669.509 1774.15 665.185 z"/>
<path transform="translate(0,0)" fill="rgb(12,35,56)" d="M 224.276 674.973 C 227.114 675.191 230.228 675.483 232.942 676.353 C 251.033 682.151 246.094 709.076 257.074 721.729 C 267.457 733.695 291.104 730.429 299.071 746.327 C 301.134 750.443 300.983 755.084 299.516 759.372 C 294.727 773.363 274.146 772.415 263.229 778.583 C 252.89 784.426 250.523 797.905 247.329 808.382 C 244.097 818.984 240.031 824.497 230.227 829.699 C 227.125 830.158 224.322 830.226 221.333 829.168 C 203.676 822.919 208.201 801.047 201.164 787.411 C 196.132 777.659 185.527 775.629 175.982 772.356 C 168.469 769.78 158.605 766.489 155.145 758.625 C 153.423 754.712 153.743 750.102 155.364 746.206 C 160.199 734.582 176.966 732.09 187.419 727.77 C 206.974 719.688 203.202 703.648 210.089 687.679 C 213.082 680.739 217.446 677.735 224.276 674.973 z"/>
<path transform="translate(0,0)" fill="rgb(12,35,56)" d="M 1768.52 1014.09 C 1771.85 1014.57 1775.01 1015.17 1778.08 1016.61 C 1791.18 1022.74 1790.27 1041.34 1795.21 1052.99 C 1800.47 1065.38 1813.19 1067.44 1824.51 1071.86 C 1831.28 1074.5 1838.22 1078.34 1841 1085.46 C 1842.65 1089.68 1842.84 1094.85 1840.94 1099.01 C 1836.11 1109.59 1818.37 1111.27 1808.61 1115.28 C 1791.19 1122.45 1794.06 1139.62 1787.54 1153.86 C 1784.01 1161.58 1778.65 1164.94 1770.96 1167.9 C 1768.49 1167.46 1766.04 1167.01 1763.77 1165.91 C 1750.16 1159.39 1750.8 1142.41 1746.16 1130.19 C 1739.66 1113.1 1723.35 1114.13 1709.24 1107.18 C 1704.07 1104.62 1699.35 1100.86 1697.78 1095.08 C 1691.11 1070.63 1731.04 1071.22 1741.91 1058.02 C 1750.14 1048.01 1748.17 1034.51 1754.36 1023.8 C 1757.7 1018.03 1762.29 1015.76 1768.52 1014.09 z"/>
<path transform="translate(0,0)" fill="rgb(12,35,56)" d="M 399.309 1599.13 C 403.23 1598.66 406.951 1598.46 410.697 1599.92 C 415.501 1601.8 419.644 1605.39 421.644 1610.2 C 423.641 1615 423.091 1620.38 421.148 1625.11 C 417.534 1633.9 341.801 1708.17 331.03 1717.39 C 327.934 1720.04 324.845 1721.7 321.1 1723.28 C 316.94 1723.79 313.091 1724.19 309.011 1722.96 C 304.667 1721.63 301.055 1718.58 299.011 1714.52 C 296.333 1709.1 297.186 1702.86 299.239 1697.39 C 300.485 1694.08 302.575 1691.45 304.912 1688.83 C 319.958 1671.98 337.278 1656.44 353.353 1640.5 C 365.047 1628.9 376.415 1615.85 388.889 1605.2 C 392.058 1602.5 395.54 1600.82 399.309 1599.13 z"/>
<path transform="translate(0,0)" fill="rgb(254,160,83)" d="M 649.377 1665.44 C 672.806 1660.26 695.973 1675.14 700.998 1698.61 C 706.023 1722.07 690.983 1745.14 667.487 1750 C 644.212 1754.83 621.408 1739.96 616.431 1716.72 C 611.454 1693.47 626.169 1670.57 649.377 1665.44 z"/>
<path transform="translate(0,0)" fill="rgb(12,35,56)" d="M 1270.22 225.203 C 1273.47 224.931 1276.98 224.757 1280.12 225.779 C 1284.52 227.207 1288.84 231.237 1290.64 235.488 C 1292.71 240.381 1292.36 246.549 1290.34 251.399 C 1286.66 260.259 1231.36 315.158 1221.66 322.724 C 1218.5 325.184 1215.2 326.623 1211.47 328.005 C 1207.88 328.131 1204.78 327.906 1201.41 326.509 C 1196.61 324.512 1192.61 321.174 1190.79 316.183 C 1188.82 310.765 1189.91 304.826 1192.26 299.716 C 1195.57 292.505 1252.21 236.631 1260.5 230.175 C 1263.52 227.822 1266.63 226.475 1270.22 225.203 z"/>
<path transform="translate(0,0)" fill="rgb(117,205,224)" d="M 1734.5 1453.65 C 1752.02 1451.23 1768.2 1463.43 1770.68 1480.95 C 1773.16 1498.46 1761.01 1514.68 1743.5 1517.22 C 1725.91 1519.77 1709.6 1507.54 1707.11 1489.95 C 1704.62 1472.35 1716.9 1456.08 1734.5 1453.65 z"/>
<path transform="translate(0,0)" fill="rgb(12,35,56)" d="M 761.103 230.745 C 777.596 227.091 793.93 237.495 797.591 253.986 C 801.252 270.478 790.855 286.816 774.365 290.484 C 757.865 294.154 741.515 283.749 737.852 267.248 C 734.188 250.746 744.6 234.401 761.103 230.745 z"/>
</svg>